#!OML:ASF X:\für Bonn\!DataBase\2005_08_11_Bastian_Final\c3d\Bastian.ASF
:FULLY-SPECIFIED
:DEGREES
248
root 0.345381 7.2417 25.5827 -939.272 -33.0273 -883.204
lowerback 76.3937 4.98885 6.74498
upperback 22.5458 -5.62305 -2.86382
thorax 4.8297 -7.36914 -4.44024
lowerneck -23.0753 -12.837 -7.3402
upperneck -9.38104 -17.6458 21.091
head 3.44969 -9.21467 5.68848
rclavicle -1.52667e-013 -1.54257e-013
rhumerus 8.62666 21.6551 -52.3088
rradius 54.7364
rwrist -7.76896
rhand -15.4972 8.65217
rfingers 7.12502
rthumb 10.6852 -21.0561
lclavicle -1.52667e-013 -1.54257e-013
lhumerus -175.048 -202.178 240.007
lradius 14.93
lwrist 39.7339
lhand -27.3016 -11.5747
lfingers 7.12502
lthumb -0.711397 18.4038
rfemur -72.233 -37.9227 25.4284
rtibia 132.603
rfoot -25.3895 -0.334233
rtoes -18.9107
lfemur -69.1396 12.2859 -17.7728
ltibia 141.957
lfoot -27.1749 -20.95
ltoes 28.4086
249
root 0.293943 7.17982 25.6105 -939.911 -32.6029 -883.127
lowerback 76.2445 4.92638 7.01387
upperback 22.6464 -5.58931 -2.8231
thorax 4.93985 -7.38117 -4.53074
lowerneck -23.1002 -12.7756 -7.17932
upperneck -9.0923 -17.5949 20.7049
head 3.47082 -9.16178 5.55133
rclavicle -3.81667e-014 -1.59028e-014
rhumerus 8.59021 21.8179 -52.294
rradius 54.5463
rwrist -7.55147
rhand -15.6194 8.49172
rfingers 7.12502
rthumb 10.5673 -21.2226
lclavicle -3.81667e-014 -1.59028e-014
lhumerus -175.334 -201.26 240.201
lradius 14.9981
lwrist 40.8657
lhand -27.585 -11.5151
lfingers 7.12502
lthumb -0.98511 18.4624
rfemur -71.742 -38.0265 24.915
rtibia 132.803
rfoot -25.186 0.013121
rtoes -19.2277
lfemur -68.9158 12.9239 -18.0258
ltibia 142.223
lfoot -26.6197 -20.8475
ltoes 29.2563
250
root 0.243595 7.12183 25.6388 -940.523 -32.2056 -883.089
lowerback 76.0681 4.88536 7.24754
upperback 22.7576 -5.55724 -2.76209
thorax 5.06261 -7.40078 -4.58601
lowerneck -23.1085 -12.7267 -7.09162
upperneck -8.80086 -17.5415 20.3601
head 3.50254 -9.10487 5.43771
rclavicle -8.26944e-014 1.66979e-014
rhumerus 8.5971 21.9484 -52.3155
rradius 54.2666
rwrist -7.25649
rhand -15.6739 8.43125
rfingers 7.12502
rthumb 10.5147 -21.2858
lclavicle -8.26944e-014 1.66979e-014
lhumerus -175.463 -201.2 240.604
lradius 14.8507
lwrist 41.1391
lhand -27.7503 -11.5235
lfingers 7.12502
lthumb -1.14474 18.4532
rfemur -71.2121 -38.101 24.3474
rtibia 132.967
rfoot -24.9839 0.375567
rtoes -19.4423
lfemur -68.7166 13.4245 -18.3824
ltibia 142.392
lfoot -26.078 -20.6191
ltoes 29.9247
251
root 0.196143 7.06787 25.6666 -941.146 -31.7843 -883.005
lowerback 75.7982 4.84227 7.50199
upperback 22.9132 -5.52188 -2.69604
thorax 5.2289 -7.41768 -4.65225
lowerneck -23.022 -12.6657 -7.03406
upperneck -8.57247 -17.4593 20.0455
head 3.50553 -9.04221 5.34824
rclavicle -5.08889e-014 -4.45278e-014
rhumerus 8.63277 22.0785 -52.3579
rradius 53.9657
rwrist -6.89385
rhand -15.6356 8.381
rfingers 7.12502
rthumb 10.5517 -21.3341
lclavicle -5.08889e-014 -4.45278e-014
lhumerus -175.421 -201.992 241.167
lradius 14.4139
lwrist 40.5759
lhand -27.7006 -11.7424
lfingers 7.12502
lthumb -1.09674 18.2345
rfemur -70.6686 -38.0724 23.8487
rtibia 133.098
rfoot -24.7599 0.734285
rtoes -19.5583
lfemur -68.6054 13.9198 -18.6972
ltibia 142.466
lfoot -25.5343 -20.4112
ltoes 30.6452
252
root 0.148955 7.01739 25.6951 -941.757 -31.3835 -882.982
lowerback 75.5502 4.82892 7.69617
upperback 23.0519 -5.49551 -2.60674
thorax 5.38086 -7.45079 -4.66378
lowerneck -22.8458 -12.6244 -7.1146
upperneck -8.39872 -17.367 19.8094
head 3.50012 -8.97737 5.30865
rclavicle 3.18055e-014 3.49861e-014
rhumerus 8.69953 22.2594 -52.3484
rradius 53.6594
rwrist -6.57878
rhand -15.5204 8.36045
rfingers 7.12502
rthumb 10.6628 -21.349
lclavicle 3.18055e-014 3.49861e-014
lhumerus -175.518 -202.543 241.675
lradius 14.0631
lwrist 40.1476
lhand -27.7608 -11.8745
lfingers 7.12502
lthumb -1.1549 18.1021
rfemur -70.0713 -38.0272 23.2804
rtibia 133.195
rfoot -24.5293 1.06209
rtoes -19.7247
lfemur -68.5213 14.2367 -19.2021
ltibia 142.425
lfoot -25.1302 -19.8607
ltoes 31.1145
